<svg xmlns="http://www.w3.org/2000/svg" viewBox="0 0 108 108"><defs><style>.cls-1,.cls-2,.cls-3,.cls-4,.cls-5,.cls-6{stroke:#000;}.cls-1,.cls-2,.cls-3,.cls-4{stroke-linecap:round;}.cls-1,.cls-2,.cls-4{stroke-linejoin:round;}.cls-1{stroke-width:1.5px;}.cls-2,.cls-7{fill:#fff;}.cls-2,.cls-3,.cls-4,.cls-5{stroke-width:0.5px;}.cls-3,.cls-9{fill:#ffd200;}.cls-3,.cls-5,.cls-6{stroke-miterlimit:10;}.cls-4{fill:#00a7e1;}.cls-5{fill:#b050b0;}.cls-6{fill:#404c87;}.cls-8{fill:#f80;}.cls-10{fill:#41874a;}.cls-11{fill:#56b563;}</style></defs><title>WC Atlanta Wapuu</title><g id="Backing"><path class="cls-1" d="M97.5,68.64c-3.22-.78-6.53-1.08-9.8-1.59V53.35h-6V49.91a6.9,6.9,0,0,0,.75.05h0a6,6,0,0,0,1.7-.24c3.47-1,4.92-3.61,4.9-4.69a.8.8,0,0,0-.57-.82,17.35,17.35,0,0,0-2.61-.08H81.68V37.07a25,25,0,0,0,2.58-.26,3.58,3.58,0,0,0,2.68-1.4.83.83,0,0,0,.11-.61c-.14-.48-.81-.51-1.16-.86A1,1,0,0,1,86,32.55a2.6,2.6,0,0,1,1.37-.64c3.25-.72,6.8-.2,9.79-1.67.31-.15.66-.41.6-.75s-.31-.4-.54-.51a19.85,19.85,0,0,0-8.13-1.49,73.19,73.19,0,0,1-7.41-.25V20s-.3-2.52-4.64-2.52S72.4,20,72.4,20V25a10.13,10.13,0,0,1-1.21-.41,16.9,16.9,0,0,1-3.3-2.31,6.08,6.08,0,0,0-3.66-1.51,1.63,1.63,0,0,0-.81.21,1.57,1.57,0,0,0-.47.52,5.1,5.1,0,0,0-.73,2.78h-1v2.17H59.42v2.07H55.68V26.47h-.06A9,9,0,0,0,40.9,16.55v-.36H39.48V14H35.79v2.23H34.37v2.65H32.73V22H31.14v1.6c-1.6,0-3.2,0-4.8.13a22.67,22.67,0,0,0-3.95.47c-.64.15-1.37.47-1.45,1.12a1.35,1.35,0,0,0,1,1.28c.53.22,1.12.27,1.63.54s.77.73.49,1.09a.71.71,0,0,1-.28.21c-2,1.15-4.45,1.14-6.71,1.65-.87.19-1.71.47-2.55.74l-3.87,1.26c-.46.15-1,.41-1,.9s.57.73,1,.86a47.27,47.27,0,0,0,15.62,1.49,9.72,9.72,0,0,0,3.17-.63,10.81,10.81,0,0,0,1.7-1v4.65a11.55,11.55,0,0,0-1.77.35c-1.37.4-2.7,1-4.08,1.35a4.59,4.59,0,0,0-2,.92,1.35,1.35,0,0,0-.06,2,2.08,2.08,0,0,0,1.16.27,31.52,31.52,0,0,1,6.42,1.3l.33.09v2.65H23.42v7.2H18.55V66l-5.6.62a3.75,3.75,0,0,0-2.47.91c-2.09,2.32,4.36,3.68,5.54,4.11,3.23,1.18,9.75,2,9.7,3.54s-3,2-4.71,2.26a12,12,0,0,0-2.94.49,2.12,2.12,0,0,0-1.41,2.34c.32,1,1.6,1.35,2.67,1.51L34.2,83.92a4.79,4.79,0,0,1,2.1.65,1.61,1.61,0,0,1,.64,1.93c-.37.73-1.46,1-1.55,1.83s1.08,1.33,2,1.42c3.71.36,7.43.6,11.07.7a9.71,9.71,0,0,0,.87.8,14.89,14.89,0,0,0,9,3.24,11.19,11.19,0,0,0,2.57-.29,23.62,23.62,0,0,0,10-5.27,38.81,38.81,0,0,0,8.18-2.48c6.7-3,7.78-4.48,8-5.22.45-1.76-3.34-2.68-2.57-4.32a1.88,1.88,0,0,1,.9-.79,29,29,0,0,1,8-3c1.93-.41,4-.68,5.49-2a1.57,1.57,0,0,0,.52-.78C99.51,69.45,98.4,68.86,97.5,68.64Z"/></g><g id="BG_City" data-name="BG City"><path class="cls-2" d="M84.26,36.81a3.58,3.58,0,0,0,2.68-1.4.83.83,0,0,0,.11-.61c-.14-.48-.81-.51-1.16-.86A1,1,0,0,1,86,32.55a2.6,2.6,0,0,1,1.37-.64c3.25-.72,6.8-.2,9.79-1.67.31-.15.66-.41.59-.75s-.3-.4-.53-.51a19.85,19.85,0,0,0-8.13-1.49,57.6,57.6,0,0,1-8.31-.36A37.61,37.61,0,0,1,77,26.26l-4.13-1.11a12.18,12.18,0,0,1-1.68-.54,16.9,16.9,0,0,1-3.3-2.31,6.08,6.08,0,0,0-3.66-1.51,1.63,1.63,0,0,0-.81.21,1.57,1.57,0,0,0-.47.52,5.9,5.9,0,0,0-.35,5,15.49,15.49,0,0,0,2.66,4.4,19.14,19.14,0,0,0,2.65,2.89,14,14,0,0,0,8.59,2.93c1.25,0,2.44.37,3.7.39A23,23,0,0,0,84.26,36.81Z"/><path class="cls-2" d="M41.39,41.6a31,31,0,0,0,1.86,12.79c.3.72.72,1.5,1.47,1.7A2.11,2.11,0,0,0,46,56a5.31,5.31,0,0,0,3.32-3.39,10.76,10.76,0,0,0,.33-3.1l.08-15.29a11.78,11.78,0,0,0-.34-3.56A4,4,0,0,0,47.14,28c-1.49-.57-4.43-.23-4.77,1.65-.45,2.44-.49,5.06-.7,7.54C41.54,38.65,41.43,40.13,41.39,41.6Z"/><path class="cls-2" d="M29.37,38.68c-1.37.4-2.7,1-4.08,1.35a4.59,4.59,0,0,0-2,.92,1.35,1.35,0,0,0-.06,2,2.08,2.08,0,0,0,1.16.27,31.52,31.52,0,0,1,6.42,1.3,15.19,15.19,0,0,0,6.48.58,1.4,1.4,0,0,0,.79-.35,1.2,1.2,0,0,0,.27-.54,4.36,4.36,0,0,0-1-4C35.3,37.93,32,37.92,29.37,38.68Z"/><path class="cls-2" d="M33.3,23.57q-3.48-.06-7,.13a22.67,22.67,0,0,0-3.95.47c-.64.15-1.37.47-1.45,1.12a1.35,1.35,0,0,0,1,1.28c.53.22,1.12.27,1.63.54s.77.73.49,1.09a.71.71,0,0,1-.28.21c-2,1.15-4.45,1.14-6.71,1.65-.87.19-1.71.47-2.55.74l-3.87,1.26c-.46.15-1,.41-1,.9s.57.73,1,.86a47.27,47.27,0,0,0,15.62,1.49,9.72,9.72,0,0,0,3.17-.63c1.73-.75,3.09-2.39,5-2.57"/><circle class="cls-3" cx="47.52" cy="22.61" r="8.98"/><line class="cls-4" x1="77.04" y1="20.08" x2="77.04" y2="14.11"/><path class="cls-4" d="M81.68,58.88H72.4V20s.3-2.52,4.64-2.52S81.68,20,81.68,20Z"/><polygon class="cls-4" points="23.42 47.22 23.42 54.42 18.55 54.42 18.55 66.71 23.42 66.71 29.56 66.71 34.43 66.71 34.43 47.22 23.42 47.22"/><rect class="cls-4" x="77.25" y="53.35" width="10.45" height="16.54"/><rect class="cls-4" x="40.56" y="38.65" width="9.96" height="24.04"/><rect class="cls-4" x="49.37" y="24.3" width="4.63" height="4.33"/><rect class="cls-4" x="61.21" y="24.3" width="4.63" height="4.33"/><rect class="cls-4" x="35.79" y="13.96" width="3.69" height="6.72"/><rect class="cls-4" x="34.37" y="16.19" width="6.53" height="6.72"/><rect class="cls-4" x="32.73" y="18.84" width="9.81" height="6.72"/><rect class="cls-4" x="31.14" y="21.97" width="12.99" height="41.28"/><polygon class="cls-4" points="59.42 26.47 59.42 28.54 55.68 28.54 55.68 26.47 47.54 26.47 47.54 63.29 53.48 63.29 55.68 63.29 59.42 63.29 61.62 63.29 67.56 63.29 67.56 26.47 59.42 26.47"/><path class="cls-5" d="M25.72,75.18c0,1.48-3,2-4.71,2.26a12,12,0,0,0-2.94.49,2.12,2.12,0,0,0-1.41,2.34c.32,1,1.6,1.35,2.67,1.51L34.2,83.92a4.79,4.79,0,0,1,2.1.65,1.61,1.61,0,0,1,.64,1.93c-.37.73-1.46,1-1.55,1.83s1.08,1.33,2,1.42c16.17,1.58,32.61.79,41.69-3.3,6.7-3,7.78-4.48,8-5.22.45-1.76-3.34-2.68-2.57-4.32a1.88,1.88,0,0,1,.9-.79,29,29,0,0,1,8-3c1.93-.41,4-.68,5.49-2a1.57,1.57,0,0,0,.52-.78c.2-.91-.91-1.5-1.81-1.72-4.55-1.1-9.29-1.25-13.84-2.37-4.18-1-8.14-2.86-12.35-3.78a45.54,45.54,0,0,0-11.72-.73c-4.86.21-9.71.75-14.54,1.29L13,66.62a3.75,3.75,0,0,0-2.47.91c-2.09,2.32,4.36,3.68,5.54,4.11C19.25,72.82,25.77,73.69,25.72,75.18Z"/></g><g id="BG_Wapuu" data-name="BG Wapuu"><path class="cls-6" d="M78.85,47a13,13,0,0,0,.27-7.06c-1-3.29-7.34-11.4-16-9.24S61.24,44,61.24,44"/><circle cx="65.96" cy="35.8" r="4.06"/><path d="M66,40.25a4.63,4.63,0,0,1-.65,0,4.46,4.46,0,1,1,1.28-8.82h0a4.45,4.45,0,0,1,3.77,5A4.46,4.46,0,0,1,66,40.25Zm.11-4.86L67,39.53l.36-.7L66.46,34l-.31,0-.38-.06.31,1.47Zm-.63,3.9a3.22,3.22,0,0,0,.93,0l-.5-2.43-1.16,2.24a4.58,4.58,0,0,0,.73.18ZM63,33.51l1.18,5.64.38-.74-.87-4.8-.31,0-.25,0Zm6.53,2.22a4.18,4.18,0,0,1-.28.56L68,38.7a3.57,3.57,0,0,0,1.5-2.39A3.76,3.76,0,0,0,69.49,35.73Zm-7.27-.48.24,0a3.51,3.51,0,0,0,1,3l-.79-3.76a4,4,0,0,0-.2.77ZM67,34.39l.56,3.13.27-.57a4,4,0,0,0,.4-1,1.75,1.75,0,0,0-.15-.95l0-.07a1.73,1.73,0,0,1-.23-1,1,1,0,0,1,.51-.71,3.57,3.57,0,0,0-1.91-.92,3.5,3.5,0,0,0-2.8.81c.35,0,.72.06.72.06a.41.41,0,0,1,.38.43.4.4,0,0,1-.41.38h-.13l.58,3.2.8-1.59-.3-1.44-.24-.06a.41.41,0,0,1,.18-.79s.61.13,1,.19,1,.09,1,.09a.4.4,0,0,1,.38.43.41.41,0,0,1-.42.38Zm1.73-.75a.42.42,0,0,0-.41.36,1.44,1.44,0,0,0,.19.72l0,.08A2.29,2.29,0,0,1,68.76,36a.36.36,0,0,1,0,.1l0-.06a3.3,3.3,0,0,0,.46-1.22c0-.12,0-.24,0-.35v-.74l-.42-.09Zm-3.58,0Z"/><path class="cls-7" d="M66.57,31.63a4.21,4.21,0,1,0,3.55,4.77A4.21,4.21,0,0,0,66.57,31.63Zm-4.35,3.62a3.93,3.93,0,0,1,.54-1.48l1.07,5.16A3.78,3.78,0,0,1,62.22,35.25Zm3.19,4.29a3.61,3.61,0,0,1-1-.31l1.6-3.1.69,3.32a.14.14,0,0,0,0,.06A3.91,3.91,0,0,1,65.41,39.54Zm1.32-5.42.44,0a.16.16,0,0,0,0-.31s-.62,0-1-.1-1-.19-1-.19a.16.16,0,0,0-.07.31l.39.09.35,1.68L64.69,38l-.77-4.25.44,0a.16.16,0,0,0,0-.31s-.62,0-1-.1l-.24,0a3.78,3.78,0,0,1,5.76.12h0a.65.65,0,0,0-.72.58,1.68,1.68,0,0,0,.24.93A2,2,0,0,1,68.51,36a4.15,4.15,0,0,1-.46,1.16l-.55,1.2Zm2.78.36a3.81,3.81,0,0,1-2.14,4.83L69,36.17a3.59,3.59,0,0,0,.49-1.3C69.5,34.73,69.5,34.6,69.51,34.48Z"/><path class="cls-6" d="M57.39,45.85s-6.07-.84-4.57-4,15.68-6.4,24.43,4.5"/><path class="cls-8" d="M75,44.45c-1.77-.15-.39,1.18.2,1.68s4.84,4.35,8.8,3.16,5.13-4.45,4.34-4.64S78.67,44.74,75,44.45Z"/><path class="cls-8" d="M72.84,81.51c-4.25,7.81-15.65,11.73-19,6.13-2.17-3.66-6.51-3.85-6.62-.4-.1,3.06,7.08,8.05,13.54,6.52,7.51-1.78,14.13-7.9,15.81-14.33Z"/><path class="cls-9" d="M80.84,52.65a20.43,20.43,0,0,0-1.92-4,17.54,17.54,0,0,1-3.71-2.5c-.59-.5-2-1.83-.2-1.68h.2a13.41,13.41,0,0,0-7.91-2.78c-6.52-.2-12,2.67-14.82,7.21C50.55,52,52,53.64,52.87,54S57.52,53,58.61,51a6.54,6.54,0,0,0,4.29,1c.06,4.48.05,9-.06,13.44-.06,2-1,6.82.83,8.45,1.52,1.36,5.13.34,6.88.09A27.82,27.82,0,0,0,78,72.14a7.48,7.48,0,0,1,1.57,4.09C83.54,69.65,82.74,58,80.84,52.65Z"/><g id="手足"><path class="cls-9" d="M77.22,68.89a4.89,4.89,0,0,1-.64,1.92c-2.91-1.68-8.16.22-9.74,3.79-.79-2-3.38-5.81-5.57-4.36-2.37,1.58-.79,4.94-.39,7.51s-1,6.53,2.27,6.53a3.6,3.6,0,0,0,3.22-1.85,16.19,16.19,0,0,0,10.22-3,12.08,12.08,0,0,0,4.27-6A8,8,0,0,0,77.22,68.89Z"/><path class="cls-9" d="M76.6,70.77a.08.08,0,0,1,0,0c-2.91-1.68-8.16.22-9.74,3.79-.79-2-3.38-5.81-5.57-4.36-2.37,1.58-.79,4.94-.39,7.51s-1,6.53,2.27,6.53a3.6,3.6,0,0,0,3.22-1.85,16.19,16.19,0,0,0,10.22-3,10.16,10.16,0,0,0,2.94-3.2A7.55,7.55,0,0,0,76.6,70.77Z"/><path class="cls-9" d="M51.19,54c-1-.39-3.45,1.29-3.16,2.87s2.08,1.58,3.26.4S52.15,54.42,51.19,54Z"/></g><path d="M66.65,51.49c-2.62.84-5.38,1.42-7.9.08-1.4,2-5,3.36-6.06,2.87a2.82,2.82,0,0,1-1.47-1.76,4.81,4.81,0,0,1,.88-4c3.06-4.85,8.74-7.62,15.22-7.42A13.91,13.91,0,0,1,76,44.51l-1-.06a1.93,1.93,0,0,0-.56,0,13,13,0,0,0-7.16-2.34c-6.16-.19-11.55,2.43-14.44,7a4.13,4.13,0,0,0-.78,3.29,2,2,0,0,0,1,1.21c.57.25,4.13-1,5.17-2.87a.42.42,0,0,1,.27-.22.47.47,0,0,1,.35.05c2.43,1.5,5.17.81,7.54.06a.44.44,0,0,1,.56.28A.45.45,0,0,1,66.65,51.49Zm13-2.55a11.71,11.71,0,0,1-1.51-.73,19.32,19.32,0,0,1,2.3,4.59c2.27,6.4,2.88,21.47-4.08,26.27A15.62,15.62,0,0,1,66.26,82a.45.45,0,1,0-.08.89c.29,0,.66,0,1.1,0a17,17,0,0,0,9.57-3.11C81,76.92,82.35,71,82.72,66.62A37.17,37.17,0,0,0,81.26,52.5,20.39,20.39,0,0,0,79.63,48.94Z"/><path d="M58.31,94.49a14.89,14.89,0,0,1-9-3.24c-1.64-1.34-2.55-2.81-2.51-4a2.73,2.73,0,0,1,2-2.81c1.57-.41,3.94.49,5.42,3a5.52,5.52,0,0,0,5.09,2.42c4.88-.1,10.52-3.76,13.12-8.53a.44.44,0,1,1,.78.42c-2.74,5-8.71,8.9-13.89,9-2.67,0-4.74-1-5.86-2.86C52.22,85.74,50.29,85,49,85.28a1.88,1.88,0,0,0-1.35,2c0,.93.78,2.17,2.18,3.31,2.52,2.06,6.84,3.71,10.81,2.77,7.3-1.73,13.81-7.62,15.48-14a.46.46,0,0,1,.55-.32.45.45,0,0,1,.31.55c-1.75,6.68-8.53,12.84-16.14,14.65A11.19,11.19,0,0,1,58.31,94.49Z"/><path d="M82.43,50h0c-1.56,0-4.1-.59-7.4-3.4l-.11-.09c-1.45-1.21-1.25-1.77-1.19-1.95.13-.35.48-.53,1-.53h.29c1.54.13,4,.14,5.81.14h5a17.35,17.35,0,0,1,2.61.08A.8.8,0,0,1,89,45c0,1.08-1.43,3.65-4.9,4.69A6,6,0,0,1,82.43,50Zm-7.79-5.07a4.46,4.46,0,0,0,.85.9l.12.09c3.09,2.64,5.41,3.19,6.82,3.19h0a5,5,0,0,0,1.45-.21,6.56,6.56,0,0,0,4-3,1.81,1.81,0,0,0,.24-.77c-.3,0-1.06,0-2.29,0h-5c-1.78,0-4.31,0-5.88-.14Z"/><path d="M49.47,58.59h0A1.86,1.86,0,0,1,47.59,57a2.46,2.46,0,0,1,.65-2,3.9,3.9,0,0,1,2.62-1.45,1.35,1.35,0,0,1,.5.09A1.91,1.91,0,0,1,52.45,55a2.86,2.86,0,0,1-.84,2.57A3.12,3.12,0,0,1,49.47,58.59Zm1.39-4.17a3.07,3.07,0,0,0-1.94,1.13,1.66,1.66,0,0,0-.45,1.27,1,1,0,0,0,1,.88A2.25,2.25,0,0,0,51,57a2,2,0,0,0,.6-1.76,1,1,0,0,0-.55-.77A.4.4,0,0,0,50.86,54.42Z"/><path class="cls-8" d="M50.56,52.19c-4,.15-4-1.67-3.06-1.66a13.15,13.15,0,0,0,5-1.64Z"/><path d="M48.29,52.46a2.37,2.37,0,0,1-1.58-1,1,1,0,0,1,0-1,.92.92,0,0,1,.84-.45,12.88,12.88,0,0,0,4.74-1.57.44.44,0,1,1,.46.75A13.55,13.55,0,0,1,47.5,51h-.06a.57.57,0,0,0,.1.14c.15.17.81.7,3,.62a.43.43,0,0,1,.46.43.44.44,0,0,1-.42.46A9,9,0,0,1,48.29,52.46Z"/></g><g id="ATL"><rect class="cls-10" x="31.14" y="64.07" width="3.29" height="6.23"/><path d="M34.43,70.55H31.14a.25.25,0,0,1-.25-.25V64.07a.25.25,0,0,1,.25-.25h3.29a.25.25,0,0,1,.25.25V70.3A.25.25,0,0,1,34.43,70.55Zm-3-.5h2.79V64.32H31.39Z"/><polygon class="cls-10" points="73.06 80.8 72.7 71.64 65.33 71.84 64.48 51.98 53.48 50.71 53.59 53.69 51.08 54.66 50.97 54 46.39 53.43 44.81 57.09 43.78 57.49 35.99 57.49 36.72 74.41 32.59 74.87 32.79 79.55 36.91 79.08 36.95 80.02 44.27 79.19 44.4 80.88 55.41 79.63 55.14 73.07 59.39 72.93 59.67 80.12 61.96 80.39 62.05 82.91 73.06 80.8"/><path d="M62.05,83.16a.3.3,0,0,1-.16,0,.28.28,0,0,1-.09-.19l-.08-2.31-2.08-.24a.25.25,0,0,1-.22-.24l-.27-6.94-3.75.12.26,6.31a.26.26,0,0,1-.22.26l-11,1.25a.27.27,0,0,1-.19-.06.26.26,0,0,1-.09-.17L44,79.47l-7.06.8a.22.22,0,0,1-.19-.06A.28.28,0,0,1,36.7,80l0-.67-3.86.43a.25.25,0,0,1-.19-.05.31.31,0,0,1-.09-.18l-.2-4.68a.24.24,0,0,1,.22-.25l3.9-.45L35.74,57.5a.29.29,0,0,1,.07-.18.27.27,0,0,1,.18-.08h7.74l.9-.35,1.53-3.56a.25.25,0,0,1,.26-.15l4.58.57a.24.24,0,0,1,.21.21l.07.36,2-.8-.1-2.8a.21.21,0,0,1,.08-.19.26.26,0,0,1,.19-.07l11,1.27a.26.26,0,0,1,.22.24l.84,19.62,7.12-.19a.26.26,0,0,1,.26.24l.36,9.15a.25.25,0,0,1-.21.26l-11,2.11ZM59.91,79.9l2.08.24a.24.24,0,0,1,.22.24l.08,2.23,10.51-2-.34-8.7-7.13.19a.26.26,0,0,1-.25-.24l-.84-19.64L53.74,51l.1,2.68a.26.26,0,0,1-.16.24l-2.51,1a.26.26,0,0,1-.21,0,.23.23,0,0,1-.12-.18l-.09-.47-4.2-.53L45,57.19a.21.21,0,0,1-.13.13l-1,.4a.15.15,0,0,1-.09,0H36.26L37,74.39a.24.24,0,0,1-.22.26l-3.89.45L33,79.27l3.86-.44a.23.23,0,0,1,.19.06.23.23,0,0,1,.08.18l0,.68,7.05-.8a.23.23,0,0,1,.18,0,.21.21,0,0,1,.09.17l.12,1.43,10.52-1.19-.26-6.33A.29.29,0,0,1,55,72.9a.25.25,0,0,1,.18-.08l4.24-.14a.28.28,0,0,1,.26.24Z"/><path class="cls-11" d="M36,57.49,37,80l-3.19-.36-.21-4.78h-1l.2,4.68-2.65-.31-.85-19.15Zm-3.82,7.75.18,4.1,1-.13L33.13,65Z"/><path d="M37,80.27h0l-3.19-.37a.25.25,0,0,1-.22-.23l-.2-4.54h-.46l.19,4.4a.22.22,0,0,1-.08.2.22.22,0,0,1-.19.06l-2.66-.3a.27.27,0,0,1-.22-.24L29,60.1a.25.25,0,0,1,.16-.24l6.7-2.6a.26.26,0,0,1,.23,0,.24.24,0,0,1,.11.2L37.2,80a.22.22,0,0,1-.08.2A.24.24,0,0,1,37,80.27Zm-3-.84,2.69.31-.93-21.89-6.21,2.41L30.38,79l2.15.24-.19-4.38a.26.26,0,0,1,.07-.18.25.25,0,0,1,.18-.08h1a.24.24,0,0,1,.25.24Zm-1.65-9.84a.23.23,0,0,1-.16-.06.21.21,0,0,1-.09-.18l-.18-4.1a.24.24,0,0,1,.19-.25l1-.22a.26.26,0,0,1,.21,0,.27.27,0,0,1,.1.19l.18,4.19a.26.26,0,0,1-.22.26l-1,.13Zm.08-4.15.16,3.62.46-.06-.16-3.67Z"/><path class="cls-11" d="M53.48,50.71l.84,22.38,7.37-.19.36,10L48.66,81.37,47.55,53Z"/><path d="M62.05,83.16h0L48.63,81.62a.26.26,0,0,1-.22-.24L47.3,53a.25.25,0,0,1,.16-.24l5.93-2.3a.24.24,0,0,1,.22,0,.28.28,0,0,1,.12.2l.83,22.14,7.13-.19c.14,0,.25.1.25.24l.36,10a.28.28,0,0,1-.08.2A.27.27,0,0,1,62.05,83.16Zm-13.15-2,12.89,1.48-.34-9.48-7.12.19h0a.24.24,0,0,1-.25-.24l-.83-22-5.43,2.11Z"/><path class="cls-11" d="M46.39,53.43l.33,8.41-3.06.72.74,18.32-4.27-.49-.7-16.84-2.33.55-.29-6.89Z"/><path d="M44.4,81.13h0l-4.27-.49a.26.26,0,0,1-.22-.24l-.69-16.54-2,.48a.25.25,0,0,1-.21,0,.26.26,0,0,1-.1-.19l-.29-6.89a.25.25,0,0,1,.16-.25L46.3,53.2a.24.24,0,0,1,.23,0,.23.23,0,0,1,.11.2L47,61.83a.24.24,0,0,1-.19.25l-2.86.67.73,18.12a.21.21,0,0,1-.08.19A.21.21,0,0,1,44.4,81.13Zm-4-1,3.77.43-.73-18a.27.27,0,0,1,.19-.26l2.87-.67-.31-7.85-9.1,3.58.28,6.42,2-.49a.23.23,0,0,1,.21.05.26.26,0,0,1,.1.19Z"/><path d="M49.57,76.22V74.85l2,0v3.43l-1.17-.07v.53l1.17.09v1.43l-2-.2V76.76l1.13,0v-.55Z"/><path d="M51.83,74.8l2.39,0v5.74l-2.39-.25Zm1.43,4.12V76.27h-.52v2.61Z"/><path d="M54.57,76.3V74.77l1.55,0v6l-1-.11V76.31Z"/><path d="M56.46,78.55V74.74l2.91,0v6.35l-2.91-.31V79.15l1.74.13v-.63Zm1.09-2.2V77l.65,0v-.62Z"/></g><g id="FG_Wapuu" data-name="FG Wapuu"><path id="身体" class="cls-9" d="M80.84,52.65a20.43,20.43,0,0,0-1.92-4,17.54,17.54,0,0,1-3.71-2.5c-.59-.5-2-1.83-.2-1.68h.2a13.41,13.41,0,0,0-7.91-2.78c-6.52-.2-12,2.67-14.82,7.21C50.55,52,52,53.64,52.87,54S57.52,53,58.61,51c2.57,1.58,4.89,1.06,7.36.27l3.52.7h0l.07,0-.47-.08-.31-.05h0a11.67,11.67,0,0,0-1.56-.1c3.48.75,12.11,3.51,9.31,9.58,0,0,.09.16.1.25a30.33,30.33,0,0,1,.68,4.3,6,6,0,0,1,0,.6c0,.53,0,.85-.06,1.3a12.22,12.22,0,0,1-.62,3,7.55,7.55,0,0,1,2.93,5.46C83.54,69.65,82.74,58,80.84,52.65Z"/><path class="cls-9" d="M77.22,68.89a4.89,4.89,0,0,1-.64,1.92c-2.91-1.68-8.16.22-9.74,3.79-.79-2-3.38-5.81-5.57-4.36-2.37,1.58-.79,4.94-.39,7.51s-1,6.53,2.27,6.53a3.6,3.6,0,0,0,3.22-1.85,16.19,16.19,0,0,0,10.22-3,12.08,12.08,0,0,0,4.27-6A8,8,0,0,0,77.22,68.89Z"/><path class="cls-9" d="M76.6,70.77a.08.08,0,0,1,0,0c-2.91-1.68-8.16.22-9.74,3.79-.79-2-3.38-5.81-5.57-4.36-2.37,1.58-.79,4.94-.39,7.51s-1,6.53,2.27,6.53a3.6,3.6,0,0,0,3.22-1.85,16.19,16.19,0,0,0,10.22-3,10.16,10.16,0,0,0,2.94-3.2A7.55,7.55,0,0,0,76.6,70.77Z"/><path class="cls-9" d="M69.49,51.94l.07,0A11.36,11.36,0,0,0,60.29,54c-2.47,2.18-.79,3.76,1.08,4s5.54-1.49,8.4-.89,3.75,1.64,6.81,4.41l0,.07C81,55.75,73.75,53,69.49,51.94Z"/><path d="M77.58,62.68a.48.48,0,0,1-.3-.11l-.35-.32c-2.87-2.6-4.61-4.17-7.25-4.72a13.2,13.2,0,0,0-5.14.47,11.17,11.17,0,0,1-3.21.43,3,3,0,0,1-2.64-1.75c-.21-.65-.15-1.7,1.3-3,2.72-2.39,7.74-3.12,11.43-1.66a.45.45,0,0,1,.25.58.45.45,0,0,1-.58.25c-3.41-1.35-8-.69-10.51,1.5-.85.75-1.22,1.47-1,2a2.1,2.1,0,0,0,1.88,1.13,10.75,10.75,0,0,0,2.92-.41,13.81,13.81,0,0,1,5.52-.47c2.88.6,4.78,2.32,7.67,4.93l.35.32a.43.43,0,0,1,0,.62A.44.44,0,0,1,77.58,62.68Z"/><path d="M63.15,84.87a2.67,2.67,0,0,1-2-.74c-.9-.93-.85-2.52-.8-4a12.62,12.62,0,0,0-.05-2.24c-.08-.54-.22-1.12-.37-1.74-.55-2.29-1.17-4.89,1-6.35a2.39,2.39,0,0,1,1.35-.42c2.58,0,4.85,4,5.28,5.6a9.22,9.22,0,0,1,0,6A4.6,4.6,0,0,1,63.15,84.87ZM62.3,70.51a1.19,1.19,0,0,0-.7.23c-1.4.93-1.11,2.62-.52,5.09.14.61.29,1.24.39,1.83a15.38,15.38,0,0,1,.06,2.46c-.05,1.28-.09,2.62.47,3.19a1.53,1.53,0,0,0,1.15.37c2.71,0,3.25-2.84,3.27-3s0,0,0-.07a8.1,8.1,0,0,0,0-5.39C66,73.67,63.9,70.51,62.3,70.51Z"/><path d="M78.23,71.65a3.71,3.71,0,0,0-1.12-.93l-.82-.38a8,8,0,0,0-3.51-.41,7.57,7.57,0,0,0-6.17,4.27.44.44,0,0,0,.2.59.46.46,0,0,0,.2,0,.45.45,0,0,0,.4-.25,6.62,6.62,0,0,1,5.46-3.77c1.93-.2,3.89.38,4.66,1.37a.44.44,0,0,0,.62.08A.44.44,0,0,0,78.23,71.65Z"/><path d="M66.65,51.49c-2.62.84-5.38,1.42-7.9.08-1.4,2-5,3.36-6.06,2.87a2.82,2.82,0,0,1-1.47-1.76,4.81,4.81,0,0,1,.88-4c3.06-4.85,8.74-7.62,15.22-7.42A13.91,13.91,0,0,1,76,44.51l-1-.06a1.93,1.93,0,0,0-.56,0,13,13,0,0,0-7.16-2.34c-6.16-.19-11.55,2.43-14.44,7a4.13,4.13,0,0,0-.78,3.29,2,2,0,0,0,1,1.21c.57.25,4.13-1,5.17-2.87a.42.42,0,0,1,.27-.22.47.47,0,0,1,.35.05c2.43,1.5,5.17.81,7.54.06a.44.44,0,0,1,.56.28A.45.45,0,0,1,66.65,51.49Zm13-2.55a11.71,11.71,0,0,1-1.51-.73,19.32,19.32,0,0,1,2.3,4.59c2.27,6.4,2.88,21.47-4.08,26.27A15.62,15.62,0,0,1,66.26,82a.45.45,0,1,0-.08.89c.29,0,.66,0,1.1,0a17,17,0,0,0,9.57-3.11C81,76.92,82.35,71,82.72,66.62A37.17,37.17,0,0,0,81.26,52.5,20.39,20.39,0,0,0,79.63,48.94Z"/><path id="顔" d="M59.69,47.81c.89-.1.79.89,0,1.48a1.51,1.51,0,0,1-1.58.4c-.79-.1-1-.76-.29-1.29A3.73,3.73,0,0,1,59.69,47.81Zm-4.84.1a.89.89,0,1,0,.89.89A.89.89,0,0,0,54.85,47.91Zm10.28-2.47a.89.89,0,1,0,.89.89A.89.89,0,0,0,65.13,45.44Z"/></g><g id="Black_Patches" data-name="Black Patches"><polygon points="47.56 51.61 47.55 53.01 49.88 52.11 47.56 51.61"/></g></svg>